HIERARCHY
ROOT Hips
{
	OFFSET -278.121490 93.318451 465.951996
	CHANNELS 6 Xposition Yposition Zposition Zrotation Yrotation Xrotation 
	JOINT LeftUpLeg
	{
		OFFSET 0.103457 1.857822 10.548516
		CHANNELS 3 Zrotation Yrotation Xrotation
		JOINT LeftLeg
		{
			OFFSET 43.500008 -0.000031 0.000015
			CHANNELS 3 Zrotation Yrotation Xrotation
			JOINT LeftFoot
			{
				OFFSET 42.372192 0.000027 -0.000009
				CHANNELS 3 Zrotation Yrotation Xrotation
				JOINT LeftToe
				{
					OFFSET 17.299999 0.000000 -0.000004
					CHANNELS 3 Zrotation Yrotation Xrotation
					End Site
					{
						OFFSET 0.000000 0.000000 0.000000
					}
				}
			}
		}
	}
	JOINT RightUpLeg
	{
		OFFSET 0.103460 1.857822 -10.548513
		CHANNELS 3 Zrotation Yrotation Xrotation
		JOINT RightLeg
		{
			OFFSET 43.500038 -0.000015 -0.000002
			CHANNELS 3 Zrotation Yrotation Xrotation
			JOINT RightFoot
			{
				OFFSET 42.372269 -0.000019 0.000014
				CHANNELS 3 Zrotation Yrotation Xrotation
				JOINT RightToe
				{
					OFFSET 17.300005 -0.000001 0.000011
					CHANNELS 3 Zrotation Yrotation Xrotation
					End Site
					{
						OFFSET 0.000000 0.000000 0.000000
					}
				}
			}
		}
	}
	JOINT Spine
	{
		OFFSET 6.901966 -2.603743 -0.000003
		CHANNELS 3 Zrotation Yrotation Xrotation
		JOINT Spine1
		{
			OFFSET 12.588103 0.000012 0.000008
			CHANNELS 3 Zrotation Yrotation Xrotation
			JOINT Spine2
			{
				OFFSET 12.343199 0.000004 0.000007
				CHANNELS 3 Zrotation Yrotation Xrotation
				JOINT Neck
				{
					OFFSET 25.832901 -0.000008 -0.000001
					CHANNELS 3 Zrotation Yrotation Xrotation
					JOINT Head
					{
						OFFSET 11.766611 0.000029 -0.000004
						CHANNELS 3 Zrotation Yrotation Xrotation
						End Site
						{
							OFFSET 0.000000 0.000000 0.000000
						}
					}
				}
				JOINT LeftShoulder
				{
					OFFSET 19.745907 -1.480370 6.000077
					CHANNELS 3 Zrotation Yrotation Xrotation
					JOINT LeftArm
					{
						OFFSET 11.284128 -0.000004 -0.000015
						CHANNELS 3 Zrotation Yrotation Xrotation
						JOINT LeftForeArm
						{
							OFFSET 33.000065 0.000010 0.000016
							CHANNELS 3 Zrotation Yrotation Xrotation
							JOINT LeftHand
							{
								OFFSET 25.200001 0.000010 0.000006
								CHANNELS 3 Zrotation Yrotation Xrotation
								End Site
								{
									OFFSET 0.000000 0.000000 0.000000
								}
							}
						}
					}
				}
				JOINT RightShoulder
				{
					OFFSET 19.746094 -1.480385 -6.000086
					CHANNELS 3 Zrotation Yrotation Xrotation
					JOINT RightArm
					{
						OFFSET 11.284142 -0.000011 -0.000013
						CHANNELS 3 Zrotation Yrotation Xrotation
						JOINT RightForeArm
						{
							OFFSET 33.000092 0.000004 0.000015
							CHANNELS 3 Zrotation Yrotation Xrotation
							JOINT RightHand
							{
								OFFSET 25.199759 0.000141 0.000412
								CHANNELS 3 Zrotation Yrotation Xrotation
								End Site
								{
									OFFSET 0.000000 0.000000 0.000000
								}
							}
						}
					}
				}
			}
		}
	}
}
MOTION
Frames: 10
Frame Time: 0.033333
276.630096 89.413010 -572.998779 79.914716 2.764575 -24.053196 177.309061 10.681596 178.001177 -19.918375 -3.679075 -5.809848 81.888026 5.415129 5.981764 21.454557 0.003094 0.000000 174.445203 12.697602 -175.715701 -73.435762 -3.207143 -2.175583 74.772902 4.775144 10.335657 21.454560 -0.003107 -0.000018 8.139127 -1.824353 0.860285 6.242461 -3.692277 1.622082 5.923804 -3.682282 1.644372 1.694877 0.052118 6.016274 -34.915329 -17.469657 16.055652 -163.376540 -77.650822 -18.441024 -18.895192 62.173812 31.875421 -20.056994 -13.164793 0.957352 0.897810 3.065410 8.827320 164.438034 70.468421 -14.692391 -25.183044 -57.362128 -8.155505 -29.386168 18.195354 -1.448105 5.455255 4.103637 -8.585810 
274.284607 89.359833 -574.038818 79.470474 2.754225 -22.428499 179.109239 10.799807 178.722077 -20.905324 -3.532555 -5.164457 83.479597 4.852776 5.902798 21.454557 0.003093 0.000000 171.368463 12.778703 -176.113723 -74.283362 -3.057235 -1.026770 76.626294 3.275728 8.635776 21.454558 -0.003109 -0.000016 8.198600 -1.803639 0.750190 6.365244 -3.645663 1.401060 6.046542 -3.636998 1.423080 2.509559 0.120809 5.836119 -34.451303 -17.364931 15.726162 -163.910306 -78.055491 -17.893506 -22.410879 61.015883 29.318963 -21.366351 -14.063919 1.030711 1.238662 -0.967048 8.880638 163.695592 70.709390 -15.444905 -23.989766 -57.539453 -9.473730 -26.457154 17.261589 -1.335297 7.337506 6.351960 -9.905168 
272.003998 89.305077 -575.093628 79.093133 2.777990 -20.615295 -179.053587 10.669297 179.375289 -21.638883 -3.500704 -4.330363 84.770099 4.203407 5.887078 21.454553 0.003093 -0.000000 168.774343 12.423003 -176.810525 -72.630340 -3.066895 0.026713 78.995673 2.164948 8.018781 21.454553 -0.003108 -0.000020 8.239158 -1.750089 0.700036 6.448373 -3.536329 1.302388 6.129738 -3.528268 1.323743 3.277415 0.103720 5.589956 -33.262089 -17.052061 15.057412 -165.191308 -78.325379 -16.586433 -25.946987 59.605374 26.366487 -22.912378 -14.870888 1.102857 1.574963 -4.950111 7.893177 162.571029 71.174328 -16.578915 -21.964994 -58.118558 -10.536138 -24.032318 16.922193 -1.274590 9.365417 5.343228 -11.725944 
269.740509 89.225906 -576.152771 78.828941 2.907020 -18.681886 -177.322448 10.441694 179.864849 -22.293732 -3.395804 -3.330080 85.923944 3.460438 5.901464 21.454551 0.003091 -0.000000 166.494085 12.015393 -177.686374 -69.063062 -3.059299 0.420941 82.097542 1.378459 6.853465 21.454558 -0.003106 -0.000016 8.263750 -1.702144 0.684359 6.498443 -3.439910 1.272914 6.179806 -3.432024 1.293686 3.779416 0.231692 5.330256 -31.897796 -16.848349 14.429471 -165.988090 -78.635019 -15.773425 -29.219385 58.224870 22.997457 -25.074565 -15.936682 1.202895 1.860731 -7.005584 7.451550 162.088408 71.412496 -17.063278 -19.217837 -58.415644 -11.389069 -22.214716 16.518889 -1.222705 10.620551 3.136325 -13.319789 
267.508911 89.145416 -577.165588 78.744049 3.249324 -16.688597 -175.642126 10.345000 -178.658665 -22.449150 -3.453199 -2.856808 86.780859 3.090078 5.888886 21.454551 0.003090 -0.000000 164.460491 11.905395 -178.630757 -63.831444 -2.976284 -0.339706 83.717984 1.356556 4.804347 21.454558 -0.003110 -0.000018 8.246998 -1.671212 0.667146 6.465664 -3.376968 1.240699 6.147056 -3.369279 1.261095 4.553792 0.109205 5.080334 -31.398311 -16.613190 13.934280 -166.684715 -78.712869 -15.063759 -31.550423 56.817957 19.554982 -28.198414 -16.979994 1.322465 1.370750 -7.834611 6.544535 161.772484 71.461920 -17.385116 -16.010161 -58.371336 -12.647355 -20.737557 16.031820 -1.172438 10.833470 0.828918 -12.818658 
265.253906 89.029411 -578.152527 78.706414 3.718048 -14.799591 -173.834953 10.283205 -176.911831 -22.183251 -3.590918 -2.574481 87.478693 2.872791 5.948660 21.454555 0.003090 -0.000000 162.980021 11.957706 179.993380 -57.103776 -2.693568 -2.366768 84.288994 2.432077 3.410224 21.454553 -0.003110 -0.000018 8.240549 -1.665484 0.650075 6.453275 -3.364507 1.207073 6.134658 -3.357022 1.227391 5.038235 -0.046310 4.956567 -31.189270 -16.409859 13.641500 -167.056578 -78.916067 -14.684698 -32.967120 55.685860 16.647876 -32.327596 -18.066011 1.473624 0.729294 -8.057661 6.529374 161.838150 71.405202 -17.320421 -12.885458 -58.135203 -14.336354 -19.742764 15.754538 -1.142778 10.654089 -1.016188 -11.464514 
262.966309 88.818497 -579.156921 78.734924 4.304520 -13.089813 -171.978440 10.195098 -175.133140 -21.693307 -3.784410 -2.371069 88.321565 2.672840 5.836171 21.454553 0.003091 -0.000000 162.071373 12.103499 178.610212 -49.052578 -2.819856 -5.635263 84.469510 4.840479 4.055083 21.454555 -0.003108 -0.000017 8.235602 -1.686334 0.625852 6.443979 -3.404784 1.157631 6.125348 -3.397595 1.178194 5.086395 -0.119282 5.020633 -30.893902 -16.451846 13.666660 -167.073708 -79.233616 -14.666421 -33.413357 54.804909 15.093492 -37.078242 -19.266311 1.660701 -0.101502 -8.353454 7.174844 162.162843 71.391282 -16.987790 -10.239672 -57.947209 -16.110610 -19.173198 15.688639 -1.132015 10.586482 -1.216918 -10.687347 
260.686493 88.741829 -580.083679 78.985032 4.681687 -11.430116 -169.828965 9.725008 -173.507077 -20.210706 -3.970925 -2.093381 88.728884 2.447250 5.696116 21.454555 0.003095 0.000000 161.813001 11.822007 176.477034 -39.680394 -2.753743 -7.621552 82.728959 6.449991 4.713058 21.454558 -0.003108 -0.000017 8.185449 -1.647360 0.580280 6.345165 -3.323953 1.070111 6.026547 -3.317294 1.090189 5.294909 -0.167540 5.206163 -30.934914 -16.640470 13.961453 -166.266612 -79.535839 -15.486421 -33.171230 54.094419 15.121593 -41.500093 -20.272533 1.842968 -1.429794 -9.365390 8.125365 162.351343 71.387218 -16.794619 -7.991209 -57.855029 -17.817045 -19.015206 15.641634 -1.135108 10.710187 0.264652 -10.449211 
258.424500 88.739967 -580.910095 79.334751 4.931695 -9.740814 -167.456472 8.956406 -172.165437 -17.994656 -4.185726 -1.664250 88.648329 2.185947 5.775333 21.454550 0.003090 -0.000000 162.102136 11.591904 173.650128 -30.216812 -1.982123 -7.570569 79.946756 6.257430 3.620061 21.454558 -0.003109 -0.000018 8.110503 -1.567875 0.508711 6.197636 -3.160651 0.933389 5.879045 -3.154821 0.952482 5.578907 -0.146241 5.452992 -31.046939 -16.892093 14.376160 -166.019386 -79.791684 -15.736657 -32.254670 53.570827 15.821401 -45.369405 -20.909434 1.998031 -2.793037 -10.891479 9.320908 162.389018 71.609028 -16.745802 -6.271174 -58.078205 -19.298061 -19.095385 15.739662 -1.141359 10.881272 2.138970 -10.126273 
256.225403 88.832443 -581.699219 79.734460 4.952456 -8.036987 -165.073351 7.852906 -170.994496 -15.484346 -4.371724 -1.212402 88.162641 1.943002 5.923586 21.454550 0.003089 -0.000000 162.693139 11.436996 169.811344 -22.038693 0.177464 -4.198289 77.064246 4.640763 6.152600 21.454558 -0.003109 -0.000017 8.026225 -1.443115 0.408024 6.032122 -2.905468 0.740820 5.713606 -2.900805 0.758371 5.647352 0.024805 5.795158 -30.823759 -17.259051 14.902669 -165.927602 -80.047741 -15.828803 -31.003311 53.297680 16.352743 -48.406968 -20.946554 2.095853 -4.326321 -11.705611 10.921582 162.540238 71.819501 -16.580991 -5.354627 -58.296983 -20.274621 -19.321596 15.839963 -1.143253 11.477172 3.159765 -9.618283 
